<?xml version="1.0" encoding="utf-8"?>
<!-- Generator: Adobe Illustrator 17.0.0, SVG Export Plug-In . SVG Version: 6.00 Build 0)  -->
<!DOCTYPE svg PUBLIC "-//W3C//DTD SVG 1.1//EN" "http://www.w3.org/Graphics/SVG/1.1/DTD/svg11.dtd">
<svg version="1.1" id="Layer_1" xmlns="http://www.w3.org/2000/svg" xmlns:xlink="http://www.w3.org/1999/xlink" x="0px" y="0px"
	 width="200px" height="200px" viewBox="0 0 200 200" enable-background="new 0 0 200 200" xml:space="preserve">
<radialGradient id="SVGID_1_" cx="130.0932" cy="94.1667" r="58.5443" fx="175.9091" fy="57.7203" gradientUnits="userSpaceOnUse">
	<stop  offset="0" style="stop-color:#E16AFF"/>
	<stop  offset="1" style="stop-color:#93278F"/>
</radialGradient>
<path fill="url(#SVGID_1_)" d="M100,9v181l93.667-108C153.113,59.361,159,66.162,100,9z"/>
<radialGradient id="SVGID_2_" cx="136.7952" cy="90.6667" r="40.5108" fx="106.2825" fy="117.3144" gradientUnits="userSpaceOnUse">
	<stop  offset="0" style="stop-color:#A900BF"/>
	<stop  offset="1" style="stop-color:#000000"/>
</radialGradient>
<path fill="url(#SVGID_2_)" d="M116,45.689l0.5,96.149l57.02-56.632C173.52,85.206,142,71.568,116,45.689z"/>
<linearGradient id="SVGID_3_" gradientUnits="userSpaceOnUse" x1="3.7286" y1="67.338" x2="101.2757" y2="4.9423">
	<stop  offset="0" style="stop-color:#EFFF00"/>
	<stop  offset="0.0902" style="stop-color:#E3F200"/>
	<stop  offset="0.2584" style="stop-color:#C2CF00"/>
	<stop  offset="0.4861" style="stop-color:#8D9600"/>
	<stop  offset="0.7612" style="stop-color:#444900"/>
	<stop  offset="1" style="stop-color:#000000"/>
</linearGradient>
<polyline fill="url(#SVGID_3_)" points="6.5,68 11.291,59.259 100,9 99.668,9.21 6.168,68.21 "/>
<linearGradient id="SVGID_4_" gradientUnits="userSpaceOnUse" x1="70.2335" y1="86.9833" x2="43.6446" y2="40.9299">
	<stop  offset="0" style="stop-color:#000000"/>
	<stop  offset="0.0902" style="stop-color:#0C0D00"/>
	<stop  offset="0.2584" style="stop-color:#2C3000"/>
	<stop  offset="0.4861" style="stop-color:#606900"/>
	<stop  offset="0.7612" style="stop-color:#A6B600"/>
	<stop  offset="1" style="stop-color:#E8FF00"/>
</linearGradient>
<polyline fill="url(#SVGID_4_)" points="100.875,30 7.583,106.667 7,107 7,68 100,9 100,30 "/>
<linearGradient id="SVGID_5_" gradientUnits="userSpaceOnUse" x1="106.5463" y1="187.4705" x2="41.1181" y2="74.1455">
	<stop  offset="0" style="stop-color:#FFFF00"/>
	<stop  offset="1" style="stop-color:#000000"/>
</linearGradient>
<path fill="url(#SVGID_5_)" d="M34.478,84.565L61,62.667c-19.333,37.333,38.75,94,38.75,94l0.25,0.583v34V191
	c0,0-74.6-62.291-64.6-107.625"/>
<linearGradient id="SVGID_6_" gradientUnits="userSpaceOnUse" x1="115.6057" y1="130.3349" x2="45.2565" y2="89.7187">
	<stop  offset="0" style="stop-color:#FFFF00"/>
	<stop  offset="0.0074" style="stop-color:#F6F600"/>
	<stop  offset="0.0477" style="stop-color:#C8C800"/>
	<stop  offset="0.0931" style="stop-color:#9D9D00"/>
	<stop  offset="0.1419" style="stop-color:#777700"/>
	<stop  offset="0.195" style="stop-color:#575700"/>
	<stop  offset="0.2537" style="stop-color:#3B3B00"/>
	<stop  offset="0.32" style="stop-color:#252500"/>
	<stop  offset="0.3974" style="stop-color:#141400"/>
	<stop  offset="0.4931" style="stop-color:#090900"/>
	<stop  offset="0.6274" style="stop-color:#020200"/>
	<stop  offset="1" style="stop-color:#000000"/>
</linearGradient>
<path fill="url(#SVGID_6_)" d="M100,154v3.365l-0.25-0.115C92.5,147,42.375,99.5,60.875,62.667
	c-9.25,47.292,32.813,78.989,38.813,90.651"/>
<linearGradient id="SVGID_7_" gradientUnits="userSpaceOnUse" x1="100.2467" y1="90.625" x2="81.7309" y2="90.625">
	<stop  offset="0" style="stop-color:#000000"/>
	<stop  offset="1" style="stop-color:#A900AA"/>
</linearGradient>
<path fill="url(#SVGID_7_)" d="M100.247,30c-37.01,43.723-8.489,121.25-0.25,121.25"/>
<path fill="none" stroke="#000000" stroke-miterlimit="10" d="M99.753,152.365"/>
<path fill="none" stroke="#000000" stroke-miterlimit="10" d="M100,30"/>
</svg>
