<?xml version="1.0" encoding="utf-8"?>
<!-- Generator: Adobe Illustrator 17.0.0, SVG Export Plug-In . SVG Version: 6.00 Build 0)  -->
<!DOCTYPE svg PUBLIC "-//W3C//DTD SVG 1.1//EN" "http://www.w3.org/Graphics/SVG/1.1/DTD/svg11.dtd">
<svg version="1.1" id="Layer_1" xmlns="http://www.w3.org/2000/svg" xmlns:xlink="http://www.w3.org/1999/xlink" x="0px" y="0px"
	 width="800px" height="600px" viewBox="0 0 800 600" enable-background="new 0 0 800 600" xml:space="preserve">
<rect x="-2" y="-8" fill="#FFF200" width="812" height="619"/>
<polygon id="Polyrotate" fill="#42FFB9" points="327.856,374.104 141.578,414.461 11.222,262.857 67.144,70.895 253.422,30.539 
	383.778,182.143 "/>
<path fill="#FFFFFF" d="M701,501.018c0,8.585-5.928,15.982-13.607,15.982h-262.99c-7.678,0-14.403-7.398-14.403-15.982V80.044
	C410,71.459,416.724,65,424.403,65h262.991C695.072,65,701,71.459,701,80.044V501.018z"/>
<path fill="#7676E2" d="M695,86.308c0,5.353-4.882,9.692-11.522,9.692H430.022C423.382,96,418,91.661,418,86.308v-1.615
	c0-5.353,5.382-9.692,12.022-9.692h253.457C690.118,75,695,79.339,695,84.692V86.308z"/>
<circle fill="#FFD82A" cx="666.5" cy="85.5" r="5"/>
<circle fill="#23BF00" cx="648.5" cy="85.5" r="5"/>
<circle fill="#D42B00" cx="683.5" cy="85.5" r="5"/>
<rect x="417" y="117" fill="#B5FFB7" width="277" height="155"/>
<rect x="418" y="291" fill="#8FD100" width="131" height="190"/>
<rect x="563" y="291" fill="#D50051" width="131" height="95"/>
<rect x="563" y="407" fill="#001B0B" width="131" height="74"/>
<path d="M563,135c0,1.329-1.567,2-3.5,2h-128c-1.933,0-3.5-0.671-3.5-2l0,0c0-1.329,1.567-2,3.5-2h128
	C561.433,133,563,133.671,563,135L563,135z"/>
<path d="M563,146c0,1.329-1.567,2-3.5,2h-128c-1.933,0-3.5-0.671-3.5-2l0,0c0-1.329,1.567-2,3.5-2h128
	C561.433,144,563,144.671,563,146L563,146z"/>
<path d="M563,157c0,1.329-1.567,2-3.5,2h-128c-1.933,0-3.5-0.671-3.5-2l0,0c0-1.329,1.567-2,3.5-2h128
	C561.433,155,563,155.671,563,157L563,157z"/>
<path d="M563,166c0,1.329-1.567,2-3.5,2h-128c-1.933,0-3.5-0.671-3.5-2l0,0c0-1.329,1.567-2,3.5-2h128
	C561.433,164,563,164.671,563,166L563,166z"/>
<path d="M686.156,177c0,1.329-2.997,2-6.693,2h-244.77c-3.696,0-6.693-0.671-6.693-2l0,0c0-1.329,2.997-2,6.693-2h244.77
	C683.159,175,686.156,175.671,686.156,177L686.156,177z"/>
<path d="M686.156,187c0,1.329-2.997,2-6.693,2h-244.77c-3.696,0-6.693-0.671-6.693-2l0,0c0-1.329,2.997-2,6.693-2h244.77
	C683.159,185,686.156,185.671,686.156,187L686.156,187z"/>
<path d="M686.156,198c0,1.329-2.997,2-6.693,2h-244.77c-3.696,0-6.693-0.671-6.693-2l0,0c0-1.329,2.997-2,6.693-2h244.77
	C683.159,196,686.156,196.671,686.156,198L686.156,198z"/>
<path d="M686.156,210c0,1.329-2.997,2-6.693,2h-244.77c-3.696,0-6.693-0.671-6.693-2l0,0c0-1.329,2.997-2,6.693-2h244.77
	C683.159,208,686.156,208.671,686.156,210L686.156,210z"/>
<path d="M686.156,221c0,1.329-2.997,2-6.693,2h-244.77c-3.696,0-6.693-0.671-6.693-2l0,0c0-1.329,2.997-2,6.693-2h244.77
	C683.159,219,686.156,219.671,686.156,221L686.156,221z"/>
<path d="M686.156,231c0,1.329-2.997,2-6.693,2h-244.77c-3.696,0-6.693-0.671-6.693-2l0,0c0-1.329,2.997-2,6.693-2h244.77
	C683.159,229,686.156,229.671,686.156,231L686.156,231z"/>
<path d="M686.156,242c0,1.329-2.997,2-6.693,2h-244.77c-3.696,0-6.693-0.671-6.693-2l0,0c0-1.329,2.997-2,6.693-2h244.77
	C683.159,240,686.156,240.671,686.156,242L686.156,242z"/>
<path d="M686.156,253c0,1.329-2.997,2-6.693,2h-244.77c-3.696,0-6.693-0.671-6.693-2l0,0c0-1.329,2.997-2,6.693-2h244.77
	C683.159,251,686.156,251.671,686.156,253L686.156,253z"/>
<rect x="64" y="206.5" fill="none" width="99" height="67"/>
<text transform="matrix(1 0 0 1 64 232.2754)" fill="#2A8100" font-family="'ArialMT'" font-size="36">HTML</text>
<text transform="matrix(1 0 0 1 64 232.2754)" fill="none" stroke="#2A8100" stroke-width="2" stroke-miterlimit="10" font-family="'ArialMT'" font-size="36">HTML</text>
<g>
	<rect x="120.5" y="102" fill="none" width="173" height="84"/>
	<text transform="matrix(1 0 0 1 120.5 147.1074)" fill="#4B37FF" font-family="'ArialMT'" font-size="63">WEB</text>
	
		<text transform="matrix(1 0 0 1 120.5 147.1074)" fill="none" stroke="#4B37FF" stroke-width="4" stroke-miterlimit="10" font-family="'ArialMT'" font-size="63">WEB</text>
</g>
<rect x="140" y="291" fill="none" width="134" height="72"/>
<text transform="matrix(1 0 0 1 140 316.7754)" fill="#8B003D" font-family="'ArialMT'" font-size="36">CSS</text>
<text transform="matrix(1 0 0 1 140 316.7754)" fill="none" stroke="#8B003D" stroke-width="3" stroke-miterlimit="10" font-family="'ArialMT'" font-size="36">CSS</text>
<text transform="matrix(1 0 0 1 197 231)" fill="#E30092" font-family="'ArialMT'" font-size="36">Javascript</text>
<text transform="matrix(1 0 0 1 197 231)" fill="none" stroke="#E30092" stroke-width="2" stroke-miterlimit="10" font-family="'ArialMT'" font-size="36">Javascript</text>

<style type="text/css">   
 #Polyrotate {
        transform-origin: 193px 164px;
        -webkit-transform-origin: 50% 50%;
        -webkit-animation: rotate 4s cubic-bezier(.49,.05,.32,1.04) infinite alternate;
        animation: rotate 4s cubic-bezier(.49,.05,.32,1.04) infinite alternate;
    }

 @-webkit-keyframes rotate {
        50% {
            -webkit-transform: rotate(360deg);
        }
    }
     @keyframes rotate {
        50% {
            transform: rotate(360deg);
        }
    }
</style>
</svg>
